<svg id="_x33_0" enable-background="new 0 0 64 64" height="512" viewBox="0 0 64 64" width="512" xmlns="http://www.w3.org/2000/svg"><g><path d="m15 17v-2h2c1.103 0 2-.897 2-2v-2c0-1.103-.897-2-2-2h-2v-2c0-1.103-.897-2-2-2h-2c-1.103 0-2 .897-2 2v2h-2c-1.103 0-2 .897-2 2v2c0 1.103.897 2 2 2h2v2c0 1.103.897 2 2 2h2c1.103 0 2-.897 2-2zm-8-4v-2h4v-4h2v4l4-.001v2.001h-4v4h-2v-4z"/><path d="m61.293 42.293-5.106 5.106c-.333-.247-.741-.399-1.187-.399h-2v-2h2c1.103 0 2-.897 2-2v-7.586l5.707-5.707-1.414-1.414-5.106 5.106c-.333-.247-.741-.399-1.187-.399h-2v-28c0-1.103-.897-2-2-2h-32.695c-1.788-1.256-3.959-2-6.305-2-6.065 0-11 4.935-11 11 0 5.728 4.402 10.442 10 10.949v38.051c0 1.103.897 2 2 2h38c1.103 0 2-.897 2-2v-2h2c1.103 0 2-.897 2-2v-7.586l5.707-5.707zm-10.293-.879 4-4v5.586h-8v-8h7.586l-3.586 3.586-1.293-1.293-1.414 1.414zm0-8.414h-4v-26h-25.214c-.366-.714-.8-1.387-1.307-2h30.521zm-23.633-15.177c-.818.273-1.367 1.036-1.367 1.898v1.035c-.641-1.013-1-2.2-1-3.419 0-1.093.408-2.138 1.15-2.941.818-.887 1.98-1.396 3.187-1.396h5.325c1.208 0 2.369.509 3.188 1.396.742.804 1.15 1.848 1.15 2.941 0 1.22-.359 2.406-1 3.419v-1.036c0-.862-.549-1.625-1.367-1.897-1.369-.457-2.632-1.237-3.652-2.257l-.981-.98-.98.98c-1.02 1.02-2.284 1.801-3.653 2.257zm.633 1.898c1.473-.491 2.845-1.291 4-2.329 1.155 1.038 2.527 1.838 4 2.329v3.279c0 2.206-1.794 4-4 4s-4-1.794-4-4zm2.263 9.02c.55.167 1.133.259 1.737.259s1.187-.092 1.737-.259l.413 2.131 3.566.594c1.049.175 1.965.734 2.608 1.534h-16.648c.643-.8 1.558-1.359 2.608-1.534l3.566-.594zm12.405 4.259c-.867-1.846-2.578-3.165-4.622-3.506l-2.196-.366-.258-1.333c1.257-.944 2.131-2.366 2.349-3.997 1.916-1.583 3.06-3.968 3.06-6.461 0-1.597-.597-3.124-1.68-4.298-1.196-1.295-2.894-2.039-4.658-2.039h-5.325c-1.764 0-3.462.744-4.657 2.04-1.084 1.174-1.681 2.7-1.681 4.297 0 2.494 1.144 4.879 3.059 6.461.218 1.631 1.092 3.053 2.349 3.997l-.258 1.333-2.196.366c-2.044.341-3.754 1.66-4.622 3.506h-2.332v-12.521c2.441-2.019 4-5.07 4-8.479 0-1.041-.155-2.045-.426-3h22.426v24zm-39.668-21c0-4.962 4.038-9 9-9s9 4.038 9 9-4.038 9-9 9-9-4.038-9-9zm48 49h-38v-38.051c1.43-.13 2.779-.537 4-1.164v13.215h28v8c0 1.103.897 2 2 2h4v2h-4c-1.103 0-2 .897-2 2v8c0 1.103.897 2 2 2h4zm4.001-4h-8.001v-8h7.586l-3.586 3.586-1.293-1.293-1.414 1.414 2.707 2.707 4-4z"/><path d="m15 43h28v-2h-2v-2h2v-2h-28zm16-2h-2v-2h2zm2-2h2v2h-2zm-6 2h-2v-2h2zm-4 0h-2v-2h2zm16 0h-2v-2h2zm-22-2h2v2h-2z"/><path d="m15 45h12v2h-12z"/><path d="m29 45h12v2h-12z"/><path d="m15 49h26v2h-26z"/><path d="m15 53h26v2h-26z"/><path d="m17 57h2v2h-2z"/><path d="m21 57h2v2h-2z"/><path d="m25 57h2v2h-2z"/></g></svg>